# xmcd
#
# Track frame offsets: 
#        150
#        16349
#        38512
#        54956
#        78619
#        96941
#        117756
#        140403
#        157126
#        175724
#        190137
#        208049
#        238163
#
# Disc length: 3566 seconds
#
# Revision: 2
# Processed by: cddbd v1.5.2PL0 Copyright (c) Steve Scherf et al.
# Submitted via: ExactAudioCopy v0.99pb4
#
DISCID=a80dec0d
DTITLE=Engerling - Komm vor
DYEAR=1997
DGENRE=Blues
TTITLE0=Tom Tomskis Blues
TTITLE1=Flieg dich frei
TTITLE2=Flucht
TTITLE3=Glashaut
TTITLE4=Cadillac
TTITLE5=Nordmond
TTITLE6=Drehtanz
TTITLE7=Zinker
TTITLE8=Lewi tr‰umt
TTITLE9=Radlers Leid
TTITLE10=Raumer 39 Beat
TTITLE11=Ballade des ‰uﬂeren Lebens
TTITLE12=Niemandsland
EXTD=
EXTT0=
EXTT1=
EXTT2=
EXTT3=
EXTT4=
EXTT5=
EXTT6=
EXTT7=
EXTT8=
EXTT9=
EXTT10=
EXTT11=
EXTT12=
PLAYORDER=
